<?xml version="1.0" standalone="no"?>
<!DOCTYPE svg PUBLIC "-//W3C//DTD SVG 20010904//EN"
 "http://www.w3.org/TR/2001/REC-SVG-20010904/DTD/svg10.dtd">
<svg version="1.0" xmlns="http://www.w3.org/2000/svg"
 width="499.000000pt" height="499.000000pt" viewBox="0 0 499.000000 499.000000"
 preserveAspectRatio="xMidYMid meet">

<g transform="translate(0.000000,499.000000) scale(0.100000,-0.100000)"
fill="#000000" stroke="none">
<path d="M2110 4975 c-114 -15 -299 -61 -437 -110 -827 -287 -1460 -1001
-1631 -1840 -37 -181 -42 -242 -42 -530 0 -314 11 -417 64 -615 72 -270 180
-515 335 -760 77 -121 175 -250 191 -250 6 0 10 -6 10 -13 0 -15 212 -226 305
-303 164 -137 360 -264 380 -246 5 4 5 2 2 -4 -16 -28 494 -234 538 -218 8 4
15 1 15 -4 0 -12 100 -36 140 -35 14 1 27 -2 30 -7 18 -29 638 -45 810 -20 47
6 96 12 110 12 14 0 31 4 37 10 7 6 20 8 29 4 8 -3 25 -1 37 6 12 6 35 11 50
10 57 -4 276 65 442 141 128 58 237 121 228 132 -5 4 -2 5 5 1 17 -10 65 21
56 36 -4 7 -3 8 4 4 14 -9 55 12 47 24 -3 5 0 12 6 16 8 4 9 3 5 -4 -12 -20 4
-14 50 19 24 18 41 37 37 43 -3 6 -3 8 2 4 10 -10 47 10 40 22 -3 5 0 12 6 16
8 4 9 3 5 -4 -4 -7 -3 -12 2 -12 10 0 47 38 47 49 0 3 4 5 9 3 12 -4 57 39 51
48 -6 10 22 33 33 26 5 -3 51 38 103 91 52 53 85 90 74 83 -11 -8 9 13 44 47
35 33 61 65 57 71 -3 5 2 16 11 23 12 10 14 10 9 1 -18 -31 6 -7 39 38 21 28
33 55 29 61 -4 7 -3 9 4 5 13 -8 76 80 67 93 -3 5 0 13 6 17 8 5 10 2 5 -7 -4
-8 2 -3 13 11 11 14 19 31 16 38 -2 6 0 12 5 12 11 0 55 80 52 93 -2 5 10 30
26 56 16 26 33 58 37 72 4 13 13 33 19 44 7 11 18 34 24 50 6 17 20 55 32 85
30 76 67 188 75 230 4 19 11 41 16 50 8 15 18 63 46 225 20 117 23 605 5 750
-18 139 -76 368 -129 505 -193 503 -526 920 -971 1217 -206 138 -485 265 -718
328 -151 41 -162 44 -266 60 -123 19 -635 19 -778 0z m485 -735 l135 -125 0
-327 0 -328 -80 0 -80 0 0 288 0 288 -60 59 -60 59 -55 -54 -55 -54 0 -259 0
-260 195 -199 195 -198 0 -1071 0 -1071 -79 -92 c-83 -96 -184 -196 -198 -196
-13 1 -164 165 -256 278 l-27 34 0 1124 0 1124 85 0 85 0 0 -1107 1 -1108 38
-40 c21 -22 48 -49 60 -59 l22 -20 54 54 55 54 0 1011 0 1010 -200 205 -199
205 -1 318 0 317 127 135 c87 92 134 135 146 133 10 -2 78 -59 152 -128z
m-510 -945 l0 -80 -229 -3 c-149 -1 -234 -6 -243 -13 -17 -14 -18 -120 -1
-137 7 -7 40 -12 80 -12 l68 0 0 35 0 35 86 0 87 0 -6 -60 c-8 -74 -26 -111
-69 -142 -29 -20 -47 -23 -142 -26 -129 -4 -177 10 -229 68 -86 94 -69 309 30
376 59 40 81 43 328 41 l240 -2 0 -80z m1283 69 c91 -37 131 -109 132 -230 0
-111 -7 -136 -48 -185 -53 -62 -98 -79 -214 -79 -110 0 -140 8 -186 53 -36 35
-52 80 -52 150 l0 47 85 0 85 0 0 -45 0 -45 65 0 c85 0 105 18 105 93 0 90 9
86 -265 89 l-240 3 -3 83 -3 82 251 0 c204 0 258 -3 288 -16z m-1766 -1077 l3
-472 49 -69 c81 -113 237 -268 450 -447 9 -8 -10 -36 -71 -108 l-29 -34 -105
90 c-207 180 -383 376 -435 488 l-24 50 0 488 0 487 80 0 79 0 3 -473z m1868
-13 c0 -336 -4 -498 -11 -525 -14 -47 -146 -218 -274 -355 -91 -98 -218 -208
-284 -247 l-30 -17 -40 69 c-23 38 -41 71 -41 74 0 2 17 16 38 30 112 74 267
232 414 420 l68 89 0 474 0 474 80 0 80 0 0 -486z m720 -1618 c0 -2 -8 -10
-17 -17 -16 -13 -17 -12 -4 4 13 16 21 21 21 13z m-555 -386 c-3 -5 -12 -10
-18 -10 -7 0 -6 4 3 10 19 12 23 12 15 0z"/>
</g>
</svg>
